# xmcd
#
# Track frame offsets: 
#        150
#        18390
#        34272
#        55232
#        72657
#        89525
#        112277
#        132937
#        154452
#        173007
#        190535
#        212727
#
# Disc length: 3058 seconds
#
# Revision: 3
# Processed by: cddbd v1.5.2PL0 Copyright (c) Steve Scherf et al.
# Submitted via: ExactAudioCopyFreeDBPlugin 1.0
#
DISCID=b00bf00c
DTITLE=Marianne Antonsen - Frame This Moment
DYEAR=1998
DGENRE=
TTITLE0=Everything's out in the open
TTITLE1=Let the funk flow
TTITLE2=I can't sleep
TTITLE3=I'll take the bitter with the sweet
TTITLE4=Love you in a special way
TTITLE5=I love doin' things for you
TTITLE6=Misty blue
TTITLE7=Love by the sword
TTITLE8=Love, I thought I'd never find love
TTITLE9=Frame this moment
TTITLE10=Blues territory
TTITLE11=Promises should never be broken
EXTD=
EXTT0=
EXTT1=
EXTT2=
EXTT3=
EXTT4=
EXTT5=
EXTT6=
EXTT7=
EXTT8=
EXTT9=
EXTT10=
EXTT11=
PLAYORDER=
